<svg version="1.1" id="Layer_1" xmlns="http://www.w3.org/2000/svg" xmlns:xlink="http://www.w3.org/1999/xlink" x="0px" y="0px"
	 width="100%" viewBox="0 0 608 608" enable-background="new 0 0 608 608" xml:space="preserve">
<path fill="#000000" opacity="1.000000" stroke="none" 
	d="
M214.604309,482.581360 
	C184.404419,476.525299 155.818329,467.507385 130.805054,449.521423 
	C124.142319,444.730499 118.231316,439.040100 113.480278,432.344818 
	C102.233017,416.494873 102.284004,396.904327 113.709167,379.981079 
	C127.290230,359.864502 146.244431,346.930756 169.162186,339.593933 
	C174.381409,337.923035 179.721207,336.532196 185.096802,335.477936 
	C189.149658,334.683105 190.100159,332.919800 189.308197,328.927460 
	C185.806793,311.276428 183.873154,293.463318 183.552032,275.427551 
	C183.317139,262.235107 189.137848,252.697937 199.612488,245.682159 
	C213.461868,236.406021 229.183578,232.142197 245.455383,229.758209 
	C249.959229,229.098373 254.501953,227.807999 259.615936,228.738174 
	C258.590393,230.817200 256.735168,230.699326 255.368057,231.139481 
	C239.628601,236.206863 224.211960,241.970963 210.525894,251.534805 
	C204.238403,255.928528 199.245209,261.316040 196.959656,268.908508 
	C196.150497,271.596588 196.509949,273.723999 198.430359,275.986359 
	C199.056076,275.387848 199.690125,275.036469 199.940979,274.504395 
	C207.581787,258.298706 222.438248,252.142334 238.085083,247.141815 
	C258.135651,240.733902 278.818756,241.384537 299.472626,241.827652 
	C299.763367,241.833878 300.048309,242.112289 300.742950,242.477890 
	C296.820892,244.660492 292.669525,244.648331 288.718079,245.294815 
	C270.137390,248.334686 251.588013,251.489868 234.533493,260.075806 
	C227.350555,263.691956 220.453644,267.742035 216.074738,274.877716 
	C214.574585,277.322327 213.367355,279.850647 214.641373,282.795685 
	C215.062302,282.848389 215.509506,283.045105 215.678162,282.905457 
	C230.265839,270.825073 247.906631,266.563965 265.957916,263.960815 
	C295.726654,259.667877 325.378784,260.924072 354.710999,267.760834 
	C364.449066,270.030579 373.993347,272.962891 382.849579,277.793915 
	C388.031799,280.620789 392.587006,284.167542 396.308350,288.771393 
	C399.008514,292.111847 401.027069,291.992279 403.511322,288.402008 
	C406.727600,283.753845 406.473602,277.840240 402.460968,272.626465 
	C394.858612,262.748322 384.429871,257.093323 372.848816,253.204132 
	C370.924408,252.557861 368.507233,252.690765 366.725159,249.306076 
	C387.075531,253.886642 405.777649,258.937103 414.730164,279.711212 
	C419.359283,276.185181 420.823517,271.124420 418.410889,265.759644 
	C414.907501,257.969482 408.426605,252.965500 401.431091,248.620651 
	C387.718689,240.104019 372.581451,234.983658 357.214813,230.463150 
	C355.816772,230.051849 354.235809,230.125305 353.121826,228.357010 
	C357.151123,226.780060 360.977448,228.239014 364.723694,228.730957 
	C381.996582,230.999100 398.787170,234.928757 413.863434,244.189911 
	C422.485535,249.486359 429.589935,256.174988 431.777710,266.524445 
	C432.619537,270.506866 432.399872,274.713684 432.719391,279.682159 
	C445.288879,272.780457 457.535522,273.397522 469.703583,279.129547 
	C462.954651,279.461060 456.244415,278.890381 449.505829,280.180359 
	C433.849731,283.177460 425.501373,300.390930 433.056091,314.585907 
	C433.521545,315.460541 434.091187,316.306152 434.745148,317.048248 
	C435.904968,318.364349 437.303802,319.356750 439.113068,318.353516 
	C440.684082,317.482300 440.726959,315.983826 440.340302,314.408997 
	C439.209412,309.803040 439.121857,305.092987 440.183655,300.550903 
	C442.700378,289.785095 453.545288,284.395020 466.562988,287.134521 
	C479.072754,289.767090 485.767273,301.296448 482.937012,315.333893 
	C477.132324,344.123688 453.776520,362.549011 423.201843,362.238373 
	C418.992065,362.195587 415.918427,362.722595 415.830627,367.739594 
	C437.154297,377.653595 459.612854,371.766968 475.552765,351.320007 
	C489.902435,332.912994 494.978546,312.584900 485.671814,290.072540 
	C485.438110,289.507263 485.398865,288.861542 485.181885,287.845856 
	C487.837982,288.184357 488.690063,290.061584 489.644653,291.639984 
	C501.278748,310.877228 499.809784,330.275513 490.163879,349.693390 
	C488.762085,352.515259 487.061676,355.227356 485.202545,357.773468 
	C483.024261,360.756714 483.218384,362.716858 486.280762,365.199982 
	C494.769836,372.083374 501.949677,380.095184 506.045746,390.510498 
	C512.920349,407.991028 506.997864,427.361633 490.630585,440.818604 
	C484.431152,445.915649 477.878754,450.460480 470.797791,454.233734 
	C468.693298,455.355164 467.049683,456.706726 466.034302,459.058563 
	C450.001801,496.193085 421.646027,517.441833 382.031311,524.369873 
	C361.489258,527.962463 341.616119,527.506470 322.950348,516.812439 
	C314.037109,511.705902 306.914825,504.756348 302.297882,495.651306 
	C300.115326,491.347168 297.354950,490.214752 292.860046,490.249390 
	C266.660339,490.451263 240.742065,487.521545 214.604309,482.581360 
M166.780975,354.312286 
	C156.406860,358.287354 146.894928,363.621887 139.107620,371.720673 
	C124.263527,387.158569 123.760262,405.403229 137.609375,421.852234 
	C144.617615,430.176086 153.487854,435.960541 162.869186,441.134888 
	C164.985397,442.302032 167.403488,443.093414 168.615067,445.529846 
	C148.177582,438.272827 129.984375,428.054840 119.512146,407.530212 
	C119.690331,417.085815 123.722794,424.708984 129.879684,431.315582 
	C142.470642,444.826294 158.594528,452.899719 175.341782,459.564056 
	C212.979446,474.541534 252.584732,480.338257 292.682587,483.518829 
	C295.969574,483.779541 296.686340,482.493591 296.043182,479.357971 
	C294.492981,471.799988 294.249451,464.149414 295.792603,456.550140 
	C296.776733,451.703674 298.066101,446.919220 299.377563,441.443237 
	C269.028595,439.048767 243.065994,427.964508 223.244370,404.785980 
	C219.589478,406.744232 217.587494,409.390747 216.597519,412.650330 
	C214.745163,418.749390 219.157349,422.752747 222.452560,426.956665 
	C220.731979,428.026703 219.988770,427.145752 219.226898,426.615295 
	C210.867203,420.794739 209.359879,411.461243 215.342010,403.060944 
	C216.531113,401.391174 218.456818,400.048859 217.278015,397.360474 
	C214.479324,390.977844 212.021179,389.971344 205.993729,393.229279 
	C203.950424,394.333710 201.874985,395.454926 200.047424,396.869720 
	C189.092468,405.350342 188.279984,412.724426 196.963120,423.489258 
	C197.618439,424.301697 198.930542,424.989624 197.939560,426.402496 
	C186.915161,421.216644 183.318619,408.496338 189.967758,398.297791 
	C193.511444,392.862427 198.429611,388.873688 203.958099,385.710175 
	C207.363876,383.761292 207.913467,381.617096 205.829361,378.460419 
	C205.194000,377.498138 204.740997,376.395172 204.329636,375.309235 
	C203.332001,372.675568 201.783752,372.308197 199.267563,373.513306 
	C192.927902,376.549591 186.821640,379.975739 181.476456,384.535797 
	C167.544861,396.421173 166.860718,409.781097 179.675156,422.759888 
	C187.347992,430.531189 196.498306,436.312836 206.350266,440.997589 
	C207.826645,441.699615 209.777557,441.926239 210.554565,444.079681 
	C209.744400,444.188232 209.216370,444.421265 208.802994,444.290863 
	C195.469025,440.084381 183.034012,434.052765 172.883820,424.321472 
	C161.164398,413.085724 160.228210,397.159760 169.843307,384.014221 
	C175.170151,376.731506 182.328201,371.596710 189.900574,366.986969 
	C198.401810,361.811798 198.315002,361.911530 195.416870,352.430328 
	C194.297943,348.769775 192.234161,347.700439 188.742142,348.501221 
	C181.610291,350.136688 174.449600,351.657928 166.780975,354.312286 
M328.561157,476.736694 
	C326.669891,476.366211 324.831451,476.314178 322.691803,477.415833 
	C330.976807,483.526642 340.073730,485.387268 349.458130,485.610596 
	C378.960602,486.312714 404.480225,475.542297 426.982574,457.254456 
	C438.880951,447.584534 448.532288,435.946167 452.954498,420.771576 
	C455.614014,411.645630 454.820862,403.016235 449.245789,395.090271 
	C444.573425,388.447662 437.410767,385.168518 430.117676,387.598053 
	C414.190735,392.903809 401.983826,402.604980 396.405731,419.103607 
	C394.169678,425.717285 392.591400,432.562408 390.183472,439.107086 
	C384.884613,453.509338 377.630066,466.412537 362.250916,472.460083 
	C351.639282,476.632874 340.541687,477.045593 328.561157,476.736694 
M372.070007,387.589325 
	C366.655304,390.157654 361.059357,392.406036 355.858826,395.352356 
	C337.980560,405.481018 322.929016,418.501312 313.909271,437.514862 
	C310.674377,444.334015 309.209869,451.492340 310.417358,458.880157 
	C311.926666,468.114716 316.222473,473.765503 326.212494,471.015778 
	C331.802002,469.477234 337.662872,468.950348 343.305847,467.575104 
	C356.875092,464.268188 367.758728,457.433228 373.884125,444.183258 
	C378.235199,434.771362 380.958221,424.799744 384.590240,415.146271 
	C388.455627,404.872498 394.845856,396.621307 404.190399,390.619598 
	C410.792114,386.379517 418.177551,384.251648 425.547211,381.848206 
	C407.307495,377.844666 389.883423,380.934753 372.070007,387.589325 
M256.150330,281.629303 
	C248.976456,283.836395 241.918030,286.308960 235.679794,290.638184 
	C234.002594,291.802124 232.311295,293.114929 232.691528,295.421875 
	C233.090103,297.840118 235.000275,298.913544 237.198822,299.569000 
	C254.318573,304.672974 271.841736,307.738129 289.638092,308.576752 
	C312.756165,309.666107 335.855072,309.119141 358.695984,304.680298 
	C369.478821,302.584808 380.157074,300.088654 390.350952,295.895630 
	C394.374695,294.240570 394.609375,292.682922 391.303101,289.947876 
	C388.328918,287.487549 384.848877,285.856567 381.276825,284.445068 
	C364.049652,277.637695 345.982269,275.167023 327.646820,274.362885 
	C303.754730,273.315002 280.196777,275.951172 256.150330,281.629303 
M448.663605,458.164825 
	C453.723938,450.387299 459.805023,443.114014 461.087433,433.440369 
	C455.578308,442.602356 449.602203,451.389679 441.919983,458.800385 
	C420.259674,479.694885 394.476959,492.498596 364.578857,495.991943 
	C344.570648,498.329742 325.258331,496.086914 309.362915,481.647217 
	C309.249878,481.544556 308.842529,481.765900 308.210297,481.929932 
	C313.338013,496.654968 323.478485,506.248566 337.809265,511.619476 
	C350.143280,516.242065 362.977539,516.361755 375.714691,514.364746 
	C382.129211,513.359009 388.711151,512.216553 394.787018,509.454010 
	C387.237793,510.999481 379.627930,511.273254 371.972687,511.609711 
	C362.136658,512.042053 352.426361,511.805939 349.127289,509.854767 
	C350.294464,509.739594 351.087738,509.600342 351.882477,509.591736 
	C372.024902,509.374084 391.612061,506.120728 410.445435,498.819336 
	C423.024902,493.942474 435.601898,489.029205 442.951599,476.515625 
	C405.773468,506.611420 350.117523,508.201935 334.293121,499.458893 
	C334.831818,499.260803 335.313019,498.888672 335.696747,498.971008 
	C349.265594,501.881470 362.805695,501.005341 376.333679,498.704010 
	C404.993103,493.828552 430.118500,482.582764 448.663605,458.164825 
M438.048096,339.307922 
	C439.606476,339.889374 441.334564,340.210419 442.694489,341.096497 
	C449.320160,345.413269 454.457336,343.104919 459.263550,337.887451 
	C467.500702,328.945526 473.875122,319.245758 472.766144,306.362213 
	C472.165497,299.384247 467.403564,296.047943 458.761414,296.313812 
	C451.832520,296.526947 448.479187,299.879425 448.397888,306.935852 
	C448.373260,309.074463 448.812042,311.222565 449.090179,313.359650 
	C449.730286,318.277771 449.072723,322.771240 444.486420,325.639008 
	C440.138519,328.357727 435.670807,328.080658 431.268005,325.580353 
	C430.436005,325.107849 429.839203,324.114349 428.670288,324.343567 
	C424.568390,333.651855 424.977386,334.671692 434.045441,337.808624 
	C435.145111,338.189026 436.230957,338.609375 438.048096,339.307922 
M224.293854,390.227661 
	C233.217407,403.273590 243.963791,414.293243 258.526459,421.087555 
	C252.533234,415.612946 246.675903,410.022797 241.648026,403.635040 
	C221.387451,377.894592 213.206009,347.584045 208.778442,315.937042 
	C207.573837,307.326782 205.693146,304.566498 195.946457,301.488892 
	C199.064011,333.048096 206.486771,362.892639 224.293854,390.227661 
M480.612915,374.907043 
	C478.336060,373.327454 476.557617,369.372253 473.229095,371.688416 
	C467.517700,375.662689 461.765045,379.551361 454.724335,383.238129 
	C467.280792,394.857544 472.230988,409.347992 473.321014,425.713013 
	C487.157654,416.860596 498.025513,393.806793 480.612915,374.907043 
M478.005493,443.477264 
	C485.918579,436.972534 493.039764,429.790344 497.254181,420.244659 
	C500.512238,412.865204 500.972107,405.329010 497.946991,396.146484 
	C495.751862,410.419556 489.073029,420.758362 478.758789,427.900452 
	C470.922821,433.326447 472.288574,441.002167 469.847260,448.592377 
	C473.371521,447.324005 475.359711,445.545532 478.005493,443.477264 
M422.431549,351.036987 
	C425.132904,352.010620 427.761505,351.945953 430.300201,350.330780 
	C427.560150,349.696106 424.806152,344.845612 422.431549,351.036987 
z"/>
<path fill="#000000" opacity="1.000000" stroke="none" 
	d="
M311.251709,178.690552 
	C307.322876,169.977707 302.707916,162.049423 297.974152,154.217422 
	C284.792450,132.408249 291.545319,109.409332 303.239502,91.222229 
	C303.722717,90.470703 304.627930,89.990479 306.353119,88.513512 
	C305.449860,94.920570 304.773193,100.088295 303.985565,105.239075 
	C301.516083,121.389000 304.307251,136.252914 313.891876,149.821640 
	C321.687927,160.858337 328.777344,172.378235 332.199890,185.678650 
	C338.272644,209.278046 332.486786,230.459976 318.733856,249.895370 
	C316.100677,253.616562 313.751892,257.684753 309.751709,260.407257 
	C308.203583,258.438843 309.706818,257.022949 310.174561,255.621780 
	C314.766937,241.865005 318.948761,228.091995 318.967499,213.323730 
	C318.982819,201.255112 316.636902,189.866943 311.251709,178.690552 
z"/>
<path fill="#000000" opacity="1.000000" stroke="none" 
	d="
M271.809814,159.615280 
	C271.263306,149.379364 274.472534,140.846115 280.518036,131.897675 
	C281.812012,137.114380 281.292267,141.076797 281.246582,144.967911 
	C281.146729,153.474457 283.720825,160.947433 288.922943,167.653763 
	C292.184235,171.858002 295.425201,176.118668 298.223846,180.633850 
	C308.906830,197.869019 305.320648,223.433670 290.298065,236.178207 
	C288.801422,232.695602 290.365814,229.487076 291.042847,226.531693 
	C294.804169,210.112167 291.396637,195.261703 282.176117,181.429611 
	C277.757812,174.801544 272.938019,168.318436 271.809814,159.615280 
z"/>
</svg>